<?xml version="1.0" standalone="no"?>
<svg viewBox="0 0 200 200" xmlns="http://www.w3.org/2000/svg">
  <path fill="#FF0066" d="M37.2,-60.1C48.2,-50.8,57.1,-40.5,65.1,-28.2C73,-15.9,80,-1.7,77.4,10.6C74.8,22.9,62.6,33.2,52.2,45.3C41.8,57.3,33.3,71,20.6,78.6C7.8,86.2,-9.2,87.8,-24.2,83C-39.1,78.3,-52,67.3,-62,54.5C-71.9,41.6,-78.8,27,-79.3,12.4C-79.8,-2.1,-73.8,-16.5,-67.2,-30.6C-60.6,-44.6,-53.4,-58.2,-42.1,-67.4C-30.8,-76.5,-15.4,-81.3,-1.2,-79.5C13.1,-77.7,26.2,-69.4,37.2,-60.1Z" transform="translate(100 100)" />
</svg>
